<svg xmlns="http://www.w3.org/2000/svg" width="135" height="40"><defs><linearGradient id="a" x1="21.8" y1="173.29" x2="5.017" y2="156.508" gradientTransform="matrix(1 0 0 -1 0 182)" gradientUnits="userSpaceOnUse"><stop offset="0" stop-color="#00a0ff"/><stop offset=".007" stop-color="#00a1ff"/><stop offset=".26" stop-color="#00beff"/><stop offset=".512" stop-color="#00d2ff"/><stop offset=".76" stop-color="#00dfff"/><stop offset="1" stop-color="#00e3ff"/></linearGradient><linearGradient id="b" x1="33.834" y1="161.999" x2="9.637" y2="161.999" gradientTransform="matrix(1 0 0 -1 0 182)" gradientUnits="userSpaceOnUse"><stop offset="0" stop-color="#ffe000"/><stop offset=".409" stop-color="#ffbd00"/><stop offset=".775" stop-color="orange"/><stop offset="1" stop-color="#ff9c00"/></linearGradient><linearGradient id="c" x1="24.827" y1="159.704" x2="2.069" y2="136.946" gradientTransform="matrix(1 0 0 -1 0 182)" gradientUnits="userSpaceOnUse"><stop offset="0" stop-color="#ff3a44"/><stop offset="1" stop-color="#c31162"/></linearGradient><linearGradient id="d" x1="7.297" y1="181.824" x2="17.46" y2="171.661" gradientTransform="matrix(1 0 0 -1 0 182)" gradientUnits="userSpaceOnUse"><stop offset="0" stop-color="#32a071"/><stop offset=".069" stop-color="#2da771"/><stop offset=".476" stop-color="#15cf74"/><stop offset=".801" stop-color="#06e775"/><stop offset="1" stop-color="#00f076"/></linearGradient></defs><g data-name="Laag 2"><rect width="135" height="40" rx="5"/><path d="M130 .8a4.205 4.205 0 014.2 4.2v30a4.205 4.205 0 01-4.2 4.2H5A4.205 4.205 0 01.8 35V5A4.205 4.205 0 015 .8h125m0-.8H5a5.015 5.015 0 00-5 5v30a5.015 5.015 0 005 5h125a5.015 5.015 0 005-5V5a5.015 5.015 0 00-5-5z" fill="#a6a6a6"/><path d="M47.418 10.243a2.708 2.708 0 01-.745 2.003 2.909 2.909 0 01-2.204.888A3.09 3.09 0 0141.352 10a3.09 3.09 0 013.117-3.134 3.095 3.095 0 011.232.251 2.475 2.475 0 01.938.67l-.527.528a2.026 2.026 0 00-1.643-.712A2.32 2.32 0 0042.14 10a2.36 2.36 0 004.006 1.727 1.888 1.888 0 00.503-1.216H44.47v-.72h2.907a2.543 2.543 0 01.042.452zm4.61-2.506h-2.733V9.64h2.464v.72h-2.464v1.903h2.733V13h-3.503V7h3.503zM55.279 13h-.772V7.737h-1.676V7h4.123v.737H55.28zm4.659 0V7h.77v6zm4.19 0h-.771V7.737H61.68V7h4.123v.737h-1.676zm9.482-.775a3.116 3.116 0 01-4.4 0A3.067 3.067 0 0168.326 10a3.067 3.067 0 01.884-2.224 3.105 3.105 0 014.396.003A3.068 3.068 0 0174.492 10a3.072 3.072 0 01-.884 2.225zm-3.83-.503a2.307 2.307 0 003.26 0A2.348 2.348 0 0073.705 10a2.348 2.348 0 00-.667-1.722 2.307 2.307 0 00-3.26 0A2.351 2.351 0 0069.113 10a2.351 2.351 0 00.666 1.722zM75.575 13V7h.939l2.916 4.668h.033l-.033-1.157V7h.771v6h-.804l-3.051-4.893h-.034l.034 1.156V13z" fill="#fff" stroke="#fff" stroke-miterlimit="10" stroke-width=".2"/><path d="M68.136 21.752a4.253 4.253 0 104.27 4.253 4.192 4.192 0 00-4.27-4.253zm0 6.83a2.584 2.584 0 112.4-2.577 2.46 2.46 0 01-2.4 2.578zm-9.314-6.83a4.253 4.253 0 104.27 4.253 4.192 4.192 0 00-4.27-4.253zm0 6.83a2.584 2.584 0 112.4-2.577 2.46 2.46 0 01-2.4 2.578zm-11.078-5.525v1.804h4.317a3.766 3.766 0 01-.982 2.272 4.42 4.42 0 01-3.335 1.32 4.801 4.801 0 010-9.601 4.602 4.602 0 013.254 1.289l1.273-1.273a6.294 6.294 0 00-4.527-1.82 6.606 6.606 0 100 13.21 6.039 6.039 0 004.607-1.852 5.962 5.962 0 001.563-4.221 5.872 5.872 0 00-.097-1.128zm45.308 1.401a3.953 3.953 0 00-3.641-2.706 4.042 4.042 0 00-4.011 4.253 4.162 4.162 0 004.22 4.253 4.23 4.23 0 003.544-1.885l-1.45-.967a2.43 2.43 0 01-2.094 1.177 2.163 2.163 0 01-2.062-1.29l5.687-2.351zm-5.8 1.418a2.333 2.333 0 012.223-2.481 1.647 1.647 0 011.579.902zM82.628 30h1.87V17.499h-1.87zm-3.06-7.298h-.065a2.947 2.947 0 00-2.24-.95 4.257 4.257 0 000 8.506 2.9 2.9 0 002.24-.967h.064v.612c0 1.628-.87 2.497-2.271 2.497a2.353 2.353 0 01-2.143-1.514l-1.627.677a4.053 4.053 0 003.77 2.513c2.191 0 4.044-1.289 4.044-4.43v-7.637h-1.773zm-2.143 5.88a2.587 2.587 0 010-5.155 2.397 2.397 0 012.271 2.593 2.377 2.377 0 01-2.271 2.563zm24.38-11.084h-4.47V30H99.2v-4.736h2.606a3.888 3.888 0 100-7.765zm.049 6.025H99.2V19.24h2.654a2.143 2.143 0 110 4.285zm11.532-1.795a3.503 3.503 0 00-3.33 1.914l1.657.692a1.768 1.768 0 011.705-.917 1.797 1.797 0 011.962 1.608v.129a4.128 4.128 0 00-1.946-.483c-1.785 0-3.603.981-3.603 2.815a2.888 2.888 0 003.104 2.75 2.632 2.632 0 002.38-1.222h.065v.965h1.8v-4.792c.001-2.22-1.655-3.458-3.794-3.458zm-.226 6.852c-.61 0-1.463-.306-1.463-1.062 0-.965 1.061-1.335 1.978-1.335a3.324 3.324 0 011.705.418 2.262 2.262 0 01-2.22 1.979zm10.583-6.578l-2.139 5.42h-.064l-2.22-5.42h-2.01l3.33 7.575-1.898 4.214h1.946l5.13-11.79zM106.936 30h1.866V17.499h-1.866z" fill="#fff"/><path d="M10.435 7.538a2.002 2.002 0 00-.463 1.405v22.116a2.002 2.002 0 00.463 1.405l.074.072L22.9 20.147v-.292L10.51 7.465z" fill="url(#a)"/><path d="M27.028 24.279l-4.13-4.132v-.292l4.13-4.13.093.053 4.893 2.78c1.398.794 1.398 2.093 0 2.888l-4.893 2.78z" fill="url(#b)"/><path d="M27.122 24.225l-4.224-4.224-12.463 12.463a1.627 1.627 0 002.078.061l14.609-8.3" fill="url(#c)"/><path d="M27.122 15.777l-14.609-8.3a1.627 1.627 0 00-2.078.061l12.463 12.463z" fill="url(#d)"/><path d="M27.029 24.132l-14.516 8.247a1.666 1.666 0 01-2.003.011l-.074.074.073.073h.001a1.665 1.665 0 002.004-.012l14.608-8.3z" style="isolation:isolate" opacity=".2"/><path d="M10.435 32.318a2.003 2.003 0 01-.463-1.405v.147a2.003 2.003 0 00.463 1.405l.075-.075zm21.58-11.019l-4.986 2.833.093.093 4.893-2.78a1.755 1.755 0 001.048-1.443 1.862 1.862 0 01-1.048 1.297z" style="isolation:isolate" opacity=".12"/><path d="M12.513 7.623l19.502 11.08a1.861 1.861 0 011.048 1.298 1.754 1.754 0 00-1.048-1.444L12.513 7.477c-1.397-.794-2.54-.134-2.54 1.466v.147c0-1.601 1.143-2.26 2.54-1.467z" style="isolation:isolate" opacity=".25" fill="#fff"/></g></svg>